<svg width="190" height="190" viewBox="0 0 190 190" fill="none" xmlns="http://www.w3.org/2000/svg">
<path d="M136.232 8.12907L136.247 8.11371L136.262 8.09769C136.878 7.42526 137.719 7.08545 138.586 7.08545C139.455 7.08545 140.349 7.42747 141.051 8.12907L182.908 50.1368L182.924 50.1528L182.94 50.1681C184.271 51.3882 184.318 53.5485 182.909 54.957C182.206 55.6601 181.273 56.0007 180.499 56.0007C179.726 56.0007 178.793 55.6601 178.09 54.957L168.589 45.4565L167.553 44.4205L166.966 45.7628C164.846 50.6085 163.482 55.7642 163.027 61.2229C162.125 71.9012 164.226 86.1141 165.116 91.4536L165.118 91.4695L165.122 91.4853C165.423 92.9933 165.573 93.9611 165.497 94.7354C165.429 95.4238 165.178 95.9943 164.505 96.6674C164.107 97.0652 163.667 97.3619 163.334 97.4452L163.291 97.4559L163.249 97.4705L63.5119 132.051C63.5101 132.051 63.5082 132.052 63.5064 132.053C63.0875 132.192 62.6216 132.298 62.3438 132.298C60.9697 132.298 59.5855 131.364 59.135 130.013L59.1308 130L59.1261 129.988C58.6709 128.736 59.0094 127.358 59.9334 126.433C59.9337 126.433 59.934 126.433 59.9342 126.433L116.635 69.8794L116.651 69.8636L116.666 69.8471C117.886 68.5161 120.05 68.4699 121.458 69.8785L121.473 69.8939L121.489 69.9085C122.821 71.1286 122.867 73.2918 121.458 74.7004L78.5591 117.596L79.5948 119.248L157.672 92.0858L158.466 91.8098L158.331 90.9806C157.291 84.5953 155.383 71.0538 156.408 60.5098L156.409 60.5013L156.41 60.4927C156.992 53.2102 159.033 46.3642 162.387 39.9471L162.728 39.2961L162.208 38.7767L152.409 28.9804L151.912 28.4836L151.276 28.7828C143.802 32.3001 136.047 34.4931 128.454 35.2237C118.656 36.1005 106.459 34.1956 100.364 33.155L99.5267 33.0121L99.2499 33.8147L78.4686 94.0798L78.4654 94.0895C78.0149 95.4409 76.6307 96.3745 75.2567 96.3745C74.9751 96.3745 74.5043 96.2687 74.0885 96.1301L74.0796 96.1271L74.0705 96.1243C72.2742 95.563 71.3203 93.6405 71.9048 91.748L93.8669 27.9343L93.8809 27.8934L93.8914 27.8514C93.9744 27.5196 94.2699 27.0831 94.6692 26.6838C95.3175 26.0355 95.9108 25.8043 96.6011 25.7492C97.3728 25.6875 98.2699 25.8411 99.5724 26.0709C104.458 26.9592 117.645 29.213 127.742 28.3095C135.006 27.7037 141.195 25.5866 145.252 23.934L146.646 23.3659L145.582 22.3009L136.232 12.9482L136.216 12.9328L136.2 12.918C134.869 11.6979 134.823 9.53767 136.232 8.12907ZM18.8125 67.687V66.8894L18.0349 66.712C10.023 64.8848 3.96875 57.5665 3.96875 48.9845C3.96875 38.8493 12.1304 30.6876 22.2656 30.6876C32.4008 30.6876 40.5625 38.8493 40.5625 48.9845C40.5625 57.5543 34.5183 64.7416 26.4802 66.7159L25.7188 66.9029V67.687V78.672C25.7188 125.834 64.1665 164.281 111.328 164.281H122.313H123.111L123.288 163.504C125.115 155.492 132.434 149.438 141.016 149.438C151.151 149.438 159.312 157.599 159.312 167.734C159.312 177.87 151.151 186.031 141.016 186.031C132.446 186.031 125.258 179.987 123.284 171.949L123.097 171.188H122.313H111.328C60.3726 171.188 18.8125 129.627 18.8125 78.672V67.687ZM136.081 50.4338L136.096 50.4184L136.111 50.4024C136.727 49.7299 137.568 49.3901 138.435 49.3901C139.305 49.3901 140.202 49.7326 140.903 50.4338L140.918 50.4491L140.934 50.4638C142.265 51.6839 142.311 53.8442 140.903 55.2528L136.45 59.7059C135.747 60.4089 134.814 60.7495 134.04 60.7495C133.266 60.7495 132.33 60.4085 131.628 59.7059L131.612 59.6905L131.596 59.6758C130.265 58.4557 130.219 56.2955 131.628 54.8869L136.081 50.4338ZM33.6562 48.9845C33.6562 42.6431 28.607 37.5938 22.2656 37.5938C15.9243 37.5938 10.875 42.6431 10.875 48.9845C10.875 55.3258 15.9243 60.3751 22.2656 60.3751C28.607 60.3751 33.6562 55.3258 33.6562 48.9845ZM152.406 167.734C152.406 161.393 147.357 156.344 141.016 156.344C134.674 156.344 129.625 161.393 129.625 167.734C129.625 174.076 134.674 179.125 141.016 179.125C147.357 179.125 152.406 174.076 152.406 167.734Z" fill="white" stroke="black" stroke-width="2"/>
</svg>
