<svg width="190" height="190" viewBox="0 0 190 190" fill="none" xmlns="http://www.w3.org/2000/svg">
<path d="M179.609 44.0469H180.609V43.0469V20.7812C180.609 14.4399 175.56 9.39062 169.219 9.39062H20.7812C14.4399 9.39062 9.39062 14.4399 9.39062 20.7812V43.0469V44.0469H10.3906H179.609ZM10.3906 50.9531H9.39062V51.9531V169.219C9.39062 175.56 14.4399 180.609 20.7812 180.609H169.219C175.56 180.609 180.609 175.56 180.609 169.219V51.9531V50.9531H179.609H10.3906ZM79.4604 147.452L79.4611 147.45L103.953 81.696C104.482 80.2846 105.718 79.4316 107.063 79.3783C107.513 79.3604 107.985 79.432 108.455 79.6082C110.326 80.31 111.231 82.266 110.54 84.1104L110.539 84.1132L86.0505 150.009C86.0498 150.011 86.0491 150.013 86.0484 150.015C85.4809 151.483 83.9976 152.308 82.4595 152.189L82.4212 152.186H82.3828C82.212 152.186 82.1309 152.158 81.8748 152.067C81.7849 152.036 81.6734 151.996 81.529 151.948C79.6686 151.241 78.7707 149.291 79.4604 147.452ZM119.574 101.833L119.574 101.833C118.192 100.566 118.087 98.3788 119.339 97.0122C119.969 96.3256 120.83 95.9494 121.713 95.906C122.596 95.8626 123.479 96.1509 124.16 96.7751L142.12 113.254L142.137 113.27L142.156 113.285C142.803 113.825 143.28 114.87 143.28 115.781C143.28 116.638 142.845 117.576 142.103 118.324L124.159 134.788L124.143 134.802L124.128 134.817C123.463 135.483 122.699 135.71 121.867 135.71C120.939 135.71 120.044 135.369 119.364 134.578C118.08 133.058 118.184 130.837 119.591 129.416L133.823 116.371L134.627 115.633L133.823 114.896L119.574 101.833ZM65.8373 96.9286L65.8404 96.9258C66.5225 96.3005 67.4062 96.0106 68.2872 96.0539C69.1699 96.0973 70.0313 96.4735 70.6607 97.1601C71.9134 98.5267 71.8081 100.714 70.4264 101.98L70.4264 101.98L56.1769 115.044L55.3774 115.777L56.1728 116.515L70.4222 129.726L70.4264 129.73C71.8081 130.997 71.9134 133.184 70.6607 134.55L70.6494 134.563L70.6386 134.575C69.9585 135.369 69.062 135.71 68.1334 135.71C67.3861 135.71 66.573 135.391 65.8225 134.771L47.8803 118.309L47.8628 118.293L47.8445 118.277C47.197 117.738 46.7199 116.692 46.7199 115.781C46.7199 114.925 47.1546 113.988 47.8954 113.24L65.8373 96.9286ZM2.48438 20.7812C2.48438 10.646 10.646 2.48438 20.7812 2.48438H169.219C179.354 2.48438 187.516 10.646 187.516 20.7812V169.219C187.516 179.354 179.354 187.516 169.219 187.516H20.7812C10.646 187.516 2.48438 179.354 2.48438 169.219V41.5625V20.7812ZM23.2656 26.7188C23.2656 24.7476 24.7476 23.2656 26.7188 23.2656H32.6562C34.6274 23.2656 36.1094 24.7476 36.1094 26.7188C36.1094 28.6899 34.6274 30.1719 32.6562 30.1719H26.7188C24.7476 30.1719 23.2656 28.6899 23.2656 26.7188ZM47.0156 26.7188C47.0156 24.7476 48.4976 23.2656 50.4688 23.2656H56.4062C58.3774 23.2656 59.8594 24.7476 59.8594 26.7188C59.8594 28.6899 58.3774 30.1719 56.4062 30.1719H50.4688C48.4976 30.1719 47.0156 28.6899 47.0156 26.7188Z" fill="white" stroke="black" stroke-width="2"/>
</svg>
