<svg width="190" height="190" viewBox="0 0 190 190" fill="none" xmlns="http://www.w3.org/2000/svg">
<g clip-path="url(#clip0_2049_1648)">
<path d="M46.3856 128.287L45.7266 128.689L45.9484 129.428C46.3581 130.794 46.5 132.176 46.5 133.594C46.5 143.729 38.3383 151.891 28.2031 151.891C18.0679 151.891 9.90625 143.729 9.90625 133.594C9.90625 123.459 18.0679 115.297 28.2031 115.297C33.8397 115.297 38.9005 117.833 42.1257 121.76L42.6743 122.428L43.4145 121.982L54.9927 115.005L55.0051 114.997L55.0173 114.99C56.5765 113.987 58.6478 114.504 59.7213 116.174C60.7217 117.73 60.2092 119.796 58.5469 120.871L46.3856 128.287ZM144.029 63.3638L144.783 62.94L144.472 62.1332C143.784 60.3436 143.5 58.3923 143.5 56.4062C143.5 46.271 151.81 37.9609 161.945 37.9609C172.081 37.9609 180.242 46.1226 180.242 56.2578C180.242 66.393 172.081 74.5547 161.945 74.5547C156.873 74.5547 152.376 72.5864 148.996 69.2069L148.455 68.6661L147.792 69.0465L135.634 76.015C133.866 76.9499 131.813 76.344 130.907 74.7743C129.97 73.0024 130.581 70.9447 132.158 70.0416C132.158 70.0411 132.159 70.0406 132.16 70.0401L144.029 63.3638ZM99.2146 37.0289L98.4531 37.2159V38V50.4687C98.4531 52.4399 96.9712 53.9219 95 53.9219C93.0288 53.9219 91.5469 52.4399 91.5469 50.4687V38V37.2024L90.7692 37.025C82.7574 35.1978 76.7031 27.879 76.7031 19.2969C76.7031 9.16166 84.8648 1 95 1C105.135 1 113.297 9.16166 113.297 19.2969C113.297 27.8667 107.253 35.0546 99.2146 37.0289ZM146.585 121.982L147.31 122.418L147.861 121.776C151.247 117.825 156.172 115.297 161.797 115.297C171.932 115.297 180.094 123.459 180.094 133.594C180.094 143.729 171.932 151.891 161.797 151.891C151.662 151.891 143.5 143.729 143.5 133.594C143.5 132.225 143.774 130.839 144.074 129.337L144.211 128.651L143.614 128.287L131.442 120.865L131.43 120.858L131.418 120.851C129.829 119.943 129.258 117.762 130.279 116.174L130.293 116.152L130.306 116.129C131.214 114.54 133.394 113.968 134.983 114.99L134.995 114.997L135.007 115.005L146.585 121.982ZM42.6581 68.9007L41.9929 68.5147L41.4491 69.0585C38.0505 72.4572 33.3984 74.7031 28.2031 74.7031C18.0679 74.7031 9.90625 66.5415 9.90625 56.4062C9.90625 46.2811 18.0578 38.2578 28.2031 38.2578C38.3383 38.2578 46.5 46.4195 46.5 56.5547C46.5 58.3841 46.2182 60.2065 45.6607 61.8791L45.4007 62.6589L46.1156 63.0649L58.1367 69.8917C58.1371 69.8919 58.1375 69.8922 58.1379 69.8924C59.7264 70.8011 60.3159 73.0058 59.3974 74.6132C58.4897 76.2017 56.2862 76.7921 54.6785 75.8755C54.6776 75.875 54.6767 75.8745 54.6758 75.8739L42.6581 68.9007ZM39.5938 133.594C39.5938 127.252 34.5445 122.203 28.2031 122.203C21.8618 122.203 16.8125 127.252 16.8125 133.594C16.8125 139.935 21.8618 144.984 28.2031 144.984C34.5445 144.984 39.5938 139.935 39.5938 133.594ZM161.797 67.7969C168.138 67.7969 173.188 62.7476 173.188 56.4062C173.188 50.0649 168.138 45.0156 161.797 45.0156C155.456 45.0156 150.406 50.0649 150.406 56.4062C150.406 62.7476 155.456 67.7969 161.797 67.7969ZM95 7.90625C88.6587 7.90625 83.6094 12.9555 83.6094 19.2969C83.6094 25.6382 88.6587 30.6875 95 30.6875C101.341 30.6875 106.391 25.6382 106.391 19.2969C106.391 12.9555 101.341 7.90625 95 7.90625ZM150.406 133.594C150.406 139.935 155.456 144.984 161.797 144.984C168.138 144.984 173.188 139.935 173.188 133.594C173.188 127.252 168.138 122.203 161.797 122.203C155.456 122.203 150.406 127.252 150.406 133.594ZM39.5938 56.4062C39.5938 50.0649 34.5445 45.0156 28.2031 45.0156C21.8618 45.0156 16.8125 50.0649 16.8125 56.4062C16.8125 62.7476 21.8618 67.7969 28.2031 67.7969C34.5445 67.7969 39.5938 62.7476 39.5938 56.4062ZM57.8906 174.156C55.9195 174.156 54.4375 172.674 54.4375 170.703C54.4375 148.25 72.6906 130.141 95 130.141C117.307 130.141 135.562 148.396 135.562 170.703C135.562 172.674 134.081 174.156 132.109 174.156C130.138 174.156 128.656 172.674 128.656 170.703C128.656 152.19 113.513 137.047 95 137.047C76.4868 137.047 61.3438 152.19 61.3438 170.703C61.3438 172.674 59.8618 174.156 57.8906 174.156ZM120.719 95C120.719 109.143 109.143 120.719 95 120.719C80.857 120.719 69.2812 109.143 69.2812 95C69.2812 80.857 80.857 69.2812 95 69.2812C109.143 69.2812 120.719 80.857 120.719 95ZM113.812 95C113.812 84.6508 105.349 76.1875 95 76.1875C84.6508 76.1875 76.1875 84.6508 76.1875 95C76.1875 105.349 84.6508 113.812 95 113.812C105.349 113.812 113.812 105.349 113.812 95Z" fill="white" stroke="black" stroke-width="2"/>
</g>
<defs>
<clipPath id="clip0_2049_1648">
<rect width="190" height="190" fill="white"/>
</clipPath>
</defs>
</svg>
