<svg width="190" height="190" viewBox="0 0 190 190" fill="none" xmlns="http://www.w3.org/2000/svg">
<path d="M149.932 39.7294C148.615 31.5382 146.565 24.0651 144.931 18.1225L143.699 13.6421L165.909 25.4755C167.123 26.1227 168.617 25.6623 169.303 24.4926C169.931 23.2821 169.467 21.8019 168.302 21.1219L140.574 6.29436C139.359 5.6463 137.863 6.10916 137.178 7.28226L122.351 35.0099C121.707 36.2169 122.16 37.7018 123.316 38.3925C123.538 38.5016 123.752 38.5921 123.953 38.6557C124.173 38.7251 124.335 38.7484 124.445 38.7484C125.3 38.7484 126.152 38.2954 126.716 37.3811L138.963 14.5322L140.321 19.2673C143.086 28.9089 145.99 41.7721 146.501 53.5573C146.756 59.4493 146.419 65.1658 145.112 70.1138C143.806 75.0608 141.49 79.3887 137.679 82.2705C132.847 85.9546 125.59 87.7414 117.618 88.7122C109.977 89.6428 101.32 89.8571 92.8636 90.0665L91.5422 90.0993L90.6325 90.1218C81.9509 90.3362 73.7051 90.5398 66.4723 91.4571C58.9612 92.4097 52.8363 94.1027 48.5727 97.1465C41.5655 102.204 37.5 106.717 36.0085 114.225C34.4687 121.977 35.6223 133.137 40.0008 151.615C40.6643 154.417 42.0703 160.004 43.3145 164.907C43.9357 167.355 44.5153 169.626 44.9395 171.286C45.1517 172.116 45.3249 172.793 45.4452 173.263L45.6323 173.993L45.6356 174.006C46.2165 176.329 46.9449 178.807 47.6882 181.335C48.038 182.455 49.0666 183.178 50.0781 183.178C50.3219 183.178 50.4046 183.176 50.4729 183.169C50.5099 183.166 50.5501 183.16 50.6332 183.132L50.6511 183.126L50.6691 183.121C52.0336 182.694 52.7636 181.379 52.4508 180.057C52.1215 178.934 51.8207 177.813 51.5303 176.73L51.4122 176.29C51.0782 175.047 50.7535 173.857 50.3957 172.712L50.3791 172.659L50.3654 172.605L50.3647 172.602L50.1841 171.885C50.0677 171.423 49.9001 170.757 49.6948 169.941C49.2841 168.307 48.7226 166.071 48.1193 163.657C46.914 158.836 45.5377 153.294 44.8663 150.459C40.6418 132.672 39.4865 122.256 40.8612 115.303C42.3006 108.022 46.4795 104.7 51.5808 101.024C55.5365 98.1642 61.8447 96.7996 68.7668 96.0387C75.3313 95.3171 82.849 95.107 90.2024 94.9015C90.7134 94.8872 91.2235 94.873 91.7325 94.8586L91.7453 94.8582L91.7581 94.858C101.353 94.7093 110.955 94.5232 119.537 93.3546C128.146 92.1823 135.458 90.0516 140.616 86.2005C150.326 78.9147 153.775 63.6752 149.932 39.7294Z" fill="white"/>
<path d="M12.7502 54.7717L12.7194 54.741L12.6874 54.7116C11.7709 53.8714 11.7709 52.266 12.6874 51.4258L12.7194 51.3965L31.8284 32.2875L12.7194 13.1785L12.6874 13.1491C11.7709 12.309 11.7709 10.7035 12.6874 9.86333L12.7515 9.80458L12.8102 9.74047C13.6176 8.8597 15.1202 8.7673 16.1561 9.80324L35.2344 28.8815L54.3434 9.77251L54.3727 9.74047C55.1801 8.8597 56.6827 8.7673 57.7186 9.80324L57.7493 9.83397L57.7814 9.86333C58.6621 10.6707 58.7545 12.1732 57.7186 13.2092L38.6403 32.2875L57.7493 51.3965L57.7814 51.4258C58.6621 52.2332 58.7545 53.7357 57.7186 54.7717C57.2038 55.2865 56.5253 55.5218 56.0156 55.5218C55.506 55.5218 54.8275 55.2865 54.3127 54.7717L35.2344 35.6934L16.1561 54.7717C15.6153 55.3125 15.0755 55.5218 14.4531 55.5218C13.8307 55.5218 13.291 55.3125 12.7502 54.7717Z" fill="white"/>
<path fill-rule="evenodd" clip-rule="evenodd" d="M130.75 151.037C130.75 138.189 141.136 127.803 153.984 127.803C166.833 127.803 177.219 138.189 177.219 151.037C177.219 163.886 166.833 174.272 153.984 174.272C141.136 174.272 130.75 163.886 130.75 151.037ZM153.984 169.366C143.825 169.366 135.656 161.197 135.656 151.037C135.656 140.878 143.825 132.709 153.984 132.709C164.144 132.709 172.312 140.878 172.312 151.037C172.312 161.197 164.144 169.366 153.984 169.366Z" fill="white"/>
</svg>
