<svg width="22" height="21" viewBox="0 0 22 21" fill="none" xmlns="http://www.w3.org/2000/svg">
<path fill-rule="evenodd" clip-rule="evenodd" d="M3.41191 20.0352C2.8858 20.0143 2.45579 19.6113 2.39995 19.087L0.907141 5.0683C0.844804 4.48291 1.26775 3.95521 1.85228 3.88908L3.94407 3.65243C4.52972 3.58618 5.05557 4.0083 5.11803 4.59481L6.2252 14.992C6.28104 15.5164 6.71105 15.9193 7.23716 15.9403L18.471 16.388C19.0594 16.4115 19.5149 16.9089 19.4878 17.4986L19.391 19.6049C19.364 20.1935 18.8663 20.6512 18.279 20.6278L3.41191 20.0352Z" fill="white"/>
<path d="M9.66132 16.6446C8.71711 17.7108 7.09765 17.8069 6.04416 16.8592C4.99067 15.9115 4.90208 14.279 5.84629 13.2128L16.7795 0.866958C17.7237 -0.199249 19.3431 -0.295347 20.3966 0.652318C21.4501 1.59998 21.5387 3.23255 20.5945 4.29876L9.66132 16.6446Z" fill="white"/>
</svg>
