<svg width="22" height="21" viewBox="0 0 22 21" fill="none" xmlns="http://www.w3.org/2000/svg">
<path fill-rule="evenodd" clip-rule="evenodd" d="M18.7377 0.667032C19.2639 0.688002 19.6939 1.09096 19.7497 1.61531L21.2425 15.634C21.3049 16.2194 20.8819 16.7471 20.2974 16.8132L18.2056 17.0498C17.6199 17.1161 17.0941 16.694 17.0316 16.1075L15.9245 5.71026C15.8686 5.1859 15.4386 4.78295 14.9125 4.76198L3.6787 4.31423C3.09024 4.29077 2.63477 3.79332 2.66186 3.20368L2.75865 1.09732C2.7857 0.508784 3.28333 0.0510574 3.87068 0.0744678L18.7377 0.667032Z" fill="white"/>
<path d="M12.4883 4.05772C13.4325 2.99151 15.052 2.89541 16.1055 3.84308C17.159 4.79074 17.2476 6.42331 16.3034 7.48952L5.3702 19.8353C4.42599 20.9015 2.80654 20.9976 1.75304 20.05C0.699554 19.1023 0.610963 17.4697 1.55517 16.4035L12.4883 4.05772Z" fill="white"/>
</svg>
