<svg width="108" height="108" viewBox="0 0 108 108" fill="none" xmlns="http://www.w3.org/2000/svg">
<path d="M72.2034 53.1972C72.1961 53.1098 72.1816 53.026 72.1525 52.9458C72.1379 52.9094 72.1233 52.8766 72.1087 52.8438C72.0759 52.7782 72.0323 52.7162 71.9812 52.6579C71.9594 52.6288 71.9375 52.6033 71.9157 52.5778C71.9048 52.5669 71.8975 52.5559 71.8866 52.545L58.8321 41.3514C58.6645 41.2093 58.4497 41.1292 58.2274 41.1292H26.5237C26.5092 41.1292 26.4946 41.1364 26.4801 41.1364C26.4327 41.1364 26.389 41.1474 26.3453 41.1547C26.298 41.1656 26.2542 41.1728 26.2105 41.1911C26.196 41.1947 26.1814 41.1947 26.1668 41.1984C26.1376 41.213 26.1158 41.2311 26.0903 41.2457C26.0503 41.2676 26.0065 41.2894 25.9701 41.3186C25.9337 41.3441 25.9009 41.3769 25.8718 41.4097C25.839 41.4389 25.8062 41.4717 25.7807 41.5081C25.7515 41.5445 25.7297 41.5846 25.7079 41.6283C25.6933 41.6539 25.6751 41.6757 25.6606 41.7049C25.6569 41.7194 25.6569 41.734 25.6533 41.7486C25.635 41.7923 25.6277 41.836 25.6168 41.8834C25.6095 41.9271 25.5986 41.9709 25.5986 42.0182C25.5986 42.0328 25.5913 42.0473 25.5913 42.0619V73.7772C25.5913 73.9994 25.6715 74.2144 25.8172 74.382L37.0066 87.4413C37.0139 87.4519 37.0248 87.4557 37.0321 87.4633C37.0977 87.5322 37.1779 87.5867 37.2616 87.6344C37.2908 87.6525 37.309 87.6745 37.3382 87.6889C37.4547 87.7396 37.5786 87.7691 37.7133 87.7691H71.2819C71.7991 87.7691 72.2143 87.3535 72.2143 86.8363V53.2555C72.2143 53.2337 72.2034 53.2191 72.2034 53.1972ZM57.8814 42.9948L68.7613 52.3228H38.0994L28.7748 42.9948H57.8814ZM70.3495 85.9035H38.6458V54.1884H70.3495V85.9035Z" fill="black"/>
<path fill-rule="evenodd" clip-rule="evenodd" d="M87.1346 8.57086L79.7623 15.5077L60.6614 35.1376V36.1886V44.9928V48.1441H63.7704H72.4566H73.7612L100.235 21.3007L87.1346 8.57086ZM83.0657 16.6303L91.7516 25.4346L95.7743 21.3574L87.0884 12.5533L83.0657 16.6303Z" fill="#FF2626"/>
<rect x="1" y="1" width="106" height="106" stroke="black" stroke-width="1.14"/>
</svg>
