<svg width="67" height="67" viewBox="0 0 67 67" fill="none" xmlns="http://www.w3.org/2000/svg">
<mask id="path-1-inside-1_2049_1517" fill="white">
<path d="M39.418 7.00037C39.0208 7.00037 38.6302 7.15682 38.3437 7.46932C37.7187 8.09432 37.7187 9.08451 38.3437 9.65743L41.6254 12.9381C40.2192 13.511 38.0829 14.2404 35.5829 14.4487C32.0933 14.7612 27.5106 13.9799 25.7919 13.6674C24.9065 13.5112 24.3333 13.4068 23.7604 13.9797C23.6042 14.136 23.4483 14.3441 23.3962 14.5524L15.6875 36.9483C15.4271 37.7816 15.844 38.6674 16.6773 38.9279C16.8335 38.9799 17.0419 39.0316 17.1981 39.0316C17.8231 39.0316 18.4475 38.6149 18.6558 37.9899L25.9475 16.8443C28.0829 17.2089 32.4067 17.8862 35.8962 17.5737C38.6046 17.3133 41.3648 16.5318 44.021 15.2818L47.4583 18.7191C46.2604 21.0108 45.5315 23.4595 45.3231 26.0637C44.9585 29.8137 45.635 34.6049 45.9996 36.8445L18.5002 46.3233L33.5525 31.272C34.1775 30.647 34.1775 29.6568 33.5525 29.0839C32.9275 28.4589 31.9373 28.4589 31.3644 29.0839L11.6246 48.8237C11.2079 49.1883 11 49.6568 11 50.1777C11 51.0631 11.7292 51.8443 12.5625 51.7402C12.7708 51.7402 12.9271 51.6885 13.0833 51.6364L48.1877 39.4487C48.396 39.3966 48.6042 39.2408 48.7604 39.0845C49.3333 38.5116 49.281 37.9899 49.0727 36.9483C48.7602 35.0733 48.0308 30.1258 48.3433 26.4279C48.4996 24.5529 48.9692 22.7824 49.6983 21.1158L53.0308 24.4483C53.2913 24.6045 53.6558 24.7616 54.0725 24.7616C54.4892 24.7616 54.8546 24.6051 55.1671 24.2926C55.7921 23.7197 55.7921 22.7303 55.1671 22.1574L40.5308 7.46932C40.2183 7.15682 39.8151 7.00037 39.418 7.00037ZM35.5707 51.1522C35.3863 51.1431 35.199 51.1479 35.0102 51.1674C33.4998 51.3237 32.2502 52.3133 31.7815 53.7716L30.6879 57.2608C30.6879 57.3129 30.6354 57.3656 30.5312 57.3656C30.4271 57.3656 30.3746 57.3129 30.3746 57.2608L29.9067 56.3758C29.3337 55.282 28.2919 54.6049 27.094 54.5529C25.896 54.5008 24.7498 55.1256 24.0727 56.1672L22.5621 57.9383C21.9892 58.6154 22.0937 59.6045 22.7187 60.1254C23.0312 60.3858 23.396 60.4906 23.7085 60.4906C24.1252 60.4906 24.5933 60.2824 24.9058 59.9178L26.4683 58.0949C26.5204 58.0428 26.5729 57.9385 26.625 57.8864C26.7292 57.7301 26.8333 57.6779 26.8854 57.6779C26.8854 57.6779 26.9371 57.6774 26.9892 57.7816L27.4581 58.6676C28.0831 59.8656 29.3337 60.5947 30.6879 60.4906C32.0421 60.3864 33.1879 59.5008 33.5525 58.1987L34.646 54.7095C34.7502 54.3449 35.0106 54.2924 35.1669 54.2924C35.3231 54.2924 35.5831 54.2922 35.7915 54.6047L37.354 57.5741C38.1352 59.0324 39.49 59.9697 41.1046 60.2301C42.7192 60.4906 44.3329 59.9693 45.4788 58.7714C46.1038 58.1464 46.1038 57.1572 45.4788 56.5843C45.01 55.9593 44.0204 55.9593 43.3954 56.5843C42.9267 57.0531 42.3544 57.2612 41.6773 57.157C41.0523 57.0529 40.531 56.6883 40.2185 56.1154L38.656 53.147C38.018 51.9621 36.8617 51.2156 35.5707 51.1522ZM16.2083 57.4174C15.7939 57.4174 15.3965 57.5821 15.1035 57.8751C14.8105 58.1681 14.6458 58.5655 14.6458 58.9799C14.6458 59.3943 14.8105 59.7918 15.1035 60.0848C15.3965 60.3778 15.7939 60.5424 16.2083 60.5424C16.6227 60.5424 17.0202 60.3778 17.3132 60.0848C17.6062 59.7918 17.7708 59.3943 17.7708 58.9799C17.7708 58.5655 17.6062 58.1681 17.3132 57.8751C17.0202 57.5821 16.6227 57.4174 16.2083 57.4174Z"/>
</mask>
<path d="M39.418 7.00037C39.0208 7.00037 38.6302 7.15682 38.3437 7.46932C37.7187 8.09432 37.7187 9.08451 38.3437 9.65743L41.6254 12.9381C40.2192 13.511 38.0829 14.2404 35.5829 14.4487C32.0933 14.7612 27.5106 13.9799 25.7919 13.6674C24.9065 13.5112 24.3333 13.4068 23.7604 13.9797C23.6042 14.136 23.4483 14.3441 23.3962 14.5524L15.6875 36.9483C15.4271 37.7816 15.844 38.6674 16.6773 38.9279C16.8335 38.9799 17.0419 39.0316 17.1981 39.0316C17.8231 39.0316 18.4475 38.6149 18.6558 37.9899L25.9475 16.8443C28.0829 17.2089 32.4067 17.8862 35.8962 17.5737C38.6046 17.3133 41.3648 16.5318 44.021 15.2818L47.4583 18.7191C46.2604 21.0108 45.5315 23.4595 45.3231 26.0637C44.9585 29.8137 45.635 34.6049 45.9996 36.8445L18.5002 46.3233L33.5525 31.272C34.1775 30.647 34.1775 29.6568 33.5525 29.0839C32.9275 28.4589 31.9373 28.4589 31.3644 29.0839L11.6246 48.8237C11.2079 49.1883 11 49.6568 11 50.1777C11 51.0631 11.7292 51.8443 12.5625 51.7402C12.7708 51.7402 12.9271 51.6885 13.0833 51.6364L48.1877 39.4487C48.396 39.3966 48.6042 39.2408 48.7604 39.0845C49.3333 38.5116 49.281 37.9899 49.0727 36.9483C48.7602 35.0733 48.0308 30.1258 48.3433 26.4279C48.4996 24.5529 48.9692 22.7824 49.6983 21.1158L53.0308 24.4483C53.2913 24.6045 53.6558 24.7616 54.0725 24.7616C54.4892 24.7616 54.8546 24.6051 55.1671 24.2926C55.7921 23.7197 55.7921 22.7303 55.1671 22.1574L40.5308 7.46932C40.2183 7.15682 39.8151 7.00037 39.418 7.00037ZM35.5707 51.1522C35.3863 51.1431 35.199 51.1479 35.0102 51.1674C33.4998 51.3237 32.2502 52.3133 31.7815 53.7716L30.6879 57.2608C30.6879 57.3129 30.6354 57.3656 30.5312 57.3656C30.4271 57.3656 30.3746 57.3129 30.3746 57.2608L29.9067 56.3758C29.3337 55.282 28.2919 54.6049 27.094 54.5529C25.896 54.5008 24.7498 55.1256 24.0727 56.1672L22.5621 57.9383C21.9892 58.6154 22.0937 59.6045 22.7187 60.1254C23.0312 60.3858 23.396 60.4906 23.7085 60.4906C24.1252 60.4906 24.5933 60.2824 24.9058 59.9178L26.4683 58.0949C26.5204 58.0428 26.5729 57.9385 26.625 57.8864C26.7292 57.7301 26.8333 57.6779 26.8854 57.6779C26.8854 57.6779 26.9371 57.6774 26.9892 57.7816L27.4581 58.6676C28.0831 59.8656 29.3337 60.5947 30.6879 60.4906C32.0421 60.3864 33.1879 59.5008 33.5525 58.1987L34.646 54.7095C34.7502 54.3449 35.0106 54.2924 35.1669 54.2924C35.3231 54.2924 35.5831 54.2922 35.7915 54.6047L37.354 57.5741C38.1352 59.0324 39.49 59.9697 41.1046 60.2301C42.7192 60.4906 44.3329 59.9693 45.4788 58.7714C46.1038 58.1464 46.1038 57.1572 45.4788 56.5843C45.01 55.9593 44.0204 55.9593 43.3954 56.5843C42.9267 57.0531 42.3544 57.2612 41.6773 57.157C41.0523 57.0529 40.531 56.6883 40.2185 56.1154L38.656 53.147C38.018 51.9621 36.8617 51.2156 35.5707 51.1522ZM16.2083 57.4174C15.7939 57.4174 15.3965 57.5821 15.1035 57.8751C14.8105 58.1681 14.6458 58.5655 14.6458 58.9799C14.6458 59.3943 14.8105 59.7918 15.1035 60.0848C15.3965 60.3778 15.7939 60.5424 16.2083 60.5424C16.6227 60.5424 17.0202 60.3778 17.3132 60.0848C17.6062 59.7918 17.7708 59.3943 17.7708 58.9799C17.7708 58.5655 17.6062 58.1681 17.3132 57.8751C17.0202 57.5821 16.6227 57.4174 16.2083 57.4174Z" fill="black"/>
<path d="M38.3437 7.46932L38.6737 7.7993L38.6809 7.79213L38.6878 7.78466L38.3437 7.46932ZM38.3437 9.65743L38.6737 9.3274L38.6665 9.32025L38.6591 9.31342L38.3437 9.65743ZM41.6254 12.9381L41.8015 13.3702L42.4525 13.105L41.9553 12.608L41.6254 12.9381ZM35.5829 14.4487L35.5442 13.9836L35.5413 13.9839L35.5829 14.4487ZM25.7919 13.6674L25.8754 13.2083L25.873 13.2079L25.7919 13.6674ZM23.3962 14.5524L23.8375 14.7043L23.8441 14.6852L23.849 14.6656L23.3962 14.5524ZM15.6875 36.9483L15.2461 36.7963L15.2421 36.8091L15.6875 36.9483ZM16.6773 38.9279L16.8249 38.4851L16.8165 38.4824L16.6773 38.9279ZM18.6558 37.9899L18.2146 37.8378L18.2131 37.8424L18.6558 37.9899ZM25.9475 16.8443L26.026 16.3843L25.6355 16.3176L25.5063 16.6922L25.9475 16.8443ZM35.8962 17.5737L35.9379 18.0385L35.9409 18.0382L35.8962 17.5737ZM44.021 15.2818L44.351 14.9518L44.1191 14.7199L43.8223 14.8596L44.021 15.2818ZM47.4583 18.7191L47.8719 18.9353L48.0307 18.6315L47.7883 18.3891L47.4583 18.7191ZM45.3231 26.0637L45.7877 26.1088L45.7883 26.1009L45.3231 26.0637ZM45.9996 36.8445L46.1517 37.2857L46.5234 37.1576L46.4602 36.7695L45.9996 36.8445ZM18.5002 46.3233L18.1702 45.9933L18.6523 46.7645L18.5002 46.3233ZM33.5525 31.272L33.8825 31.602L33.8825 31.602L33.5525 31.272ZM33.5525 29.0839L33.2225 29.4139L33.2297 29.4211L33.2372 29.4279L33.5525 29.0839ZM31.3644 29.0839L31.6944 29.4139L31.7015 29.4067L31.7084 29.3992L31.3644 29.0839ZM11.6246 48.8237L11.9319 49.1749L11.9436 49.1647L11.9546 49.1537L11.6246 48.8237ZM12.5625 51.7402V51.2735H12.5334L12.5046 51.2771L12.5625 51.7402ZM13.0833 51.6364L13.2309 52.0791L13.2364 52.0772L13.0833 51.6364ZM48.1877 39.4487L48.0745 38.996L48.0543 39.001L48.0346 39.0078L48.1877 39.4487ZM49.0727 36.9483L48.6124 37.025L48.6136 37.0324L48.6151 37.0398L49.0727 36.9483ZM48.3433 26.4279L48.8084 26.4672L48.8084 26.4666L48.3433 26.4279ZM49.6983 21.1158L50.0283 20.7858L49.5448 20.3023L49.2708 20.9287L49.6983 21.1158ZM53.0308 24.4483L52.7009 24.7783L52.7415 24.8189L52.7907 24.8484L53.0308 24.4483ZM55.1671 24.2926L54.8517 23.9486L54.8443 23.9555L54.8371 23.9627L55.1671 24.2926ZM55.1671 22.1574L54.8365 22.4868L54.844 22.4943L54.8517 22.5014L55.1671 22.1574ZM40.5308 7.46932L40.8614 7.13992L40.8608 7.13934L40.5308 7.46932ZM35.5707 51.1522L35.5936 50.6861L35.5936 50.6861L35.5707 51.1522ZM31.7815 53.7716L31.3372 53.6288L31.3361 53.632L31.7815 53.7716ZM30.6879 57.2608L30.2426 57.1212L30.2212 57.1894V57.2608H30.6879ZM30.3746 57.2608H30.8413V57.145L30.7871 57.0427L30.3746 57.2608ZM29.9067 56.3758L29.4933 56.5923L29.4941 56.5939L29.9067 56.3758ZM24.0727 56.1672L24.4278 56.4701L24.4475 56.447L24.464 56.4216L24.0727 56.1672ZM22.5621 57.9383L22.207 57.6354L22.2058 57.6368L22.5621 57.9383ZM24.9058 59.9178L25.2602 60.2215L25.2602 60.2215L24.9058 59.9178ZM26.4683 58.0949L26.1384 57.7649L26.1257 57.7776L26.114 57.7912L26.4683 58.0949ZM26.625 57.8864L26.955 58.2164L26.9877 58.1837L27.0133 58.1453L26.625 57.8864ZM26.8854 57.6779L26.8854 58.1445L26.8891 58.1445L26.8854 57.6779ZM26.9892 57.7816L26.5717 57.9904L26.5767 57.9999L26.9892 57.7816ZM27.4581 58.6676L27.8719 58.4518L27.8706 58.4493L27.4581 58.6676ZM33.5525 58.1987L33.1072 58.0591L33.105 58.066L33.1031 58.0729L33.5525 58.1987ZM34.646 54.7095L35.0915 54.8491L35.0947 54.8377L34.646 54.7095ZM35.7915 54.6047L36.2044 54.3874L36.1932 54.366L36.1798 54.3459L35.7915 54.6047ZM37.354 57.5741L36.941 57.7914L36.9426 57.7945L37.354 57.5741ZM45.4788 58.7714L45.1487 58.4413L45.1415 58.4488L45.4788 58.7714ZM45.4788 56.5843L45.1054 56.8643L45.1314 56.899L45.1634 56.9283L45.4788 56.5843ZM41.6773 57.157L41.6006 57.6174L41.6063 57.6183L41.6773 57.157ZM40.2185 56.1154L39.8056 56.3328L39.8089 56.3388L40.2185 56.1154ZM38.656 53.147L39.069 52.9296L39.0669 52.9258L38.656 53.147ZM16.2083 57.4174V57.8841V57.4174ZM39.418 6.5337C38.8975 6.5337 38.3795 6.73966 37.9997 7.15398L38.6878 7.78466C38.8809 7.57398 39.1441 7.46703 39.418 7.46703V6.5337ZM38.0138 7.13934C37.2149 7.93824 37.1933 9.23592 38.0284 10.0014L38.6591 9.31342C38.2442 8.93311 38.2226 8.2504 38.6737 7.7993L38.0138 7.13934ZM38.0138 9.98746L41.2955 13.2681L41.9553 12.608L38.6737 9.3274L38.0138 9.98746ZM41.4493 12.5059C40.0661 13.0694 37.9789 13.7807 35.5442 13.9836L35.6217 14.9137C38.187 14.7 40.3722 13.9525 41.8015 13.3702L41.4493 12.5059ZM35.5413 13.9839C32.1237 14.2899 27.6008 13.522 25.8753 13.2083L25.7084 14.1266C27.4204 14.4379 32.063 15.2324 35.6245 14.9135L35.5413 13.9839ZM25.873 13.2079C25.4499 13.1332 25.0197 13.0532 24.6218 13.085C24.1858 13.1198 23.7955 13.2847 23.4304 13.6498L24.0904 14.3097C24.2983 14.1018 24.4809 14.0325 24.6961 14.0153C24.9494 13.9951 25.2484 14.0454 25.7108 14.127L25.873 13.2079ZM23.4304 13.6498C23.2517 13.8285 23.0259 14.1095 22.9435 14.4393L23.849 14.6656C23.8707 14.5787 23.9567 14.4435 24.0904 14.3097L23.4304 13.6498ZM22.955 14.4006L15.2462 36.7964L16.1288 37.1002L23.8375 14.7043L22.955 14.4006ZM15.2421 36.8091C14.9117 37.8662 15.4371 39.0292 16.5381 39.3733L16.8165 38.4824C16.2508 38.3057 15.9424 37.6971 16.1329 37.0875L15.2421 36.8091ZM16.5297 39.3706C16.6997 39.4272 16.9654 39.4983 17.1981 39.4983V38.5649C17.1183 38.5649 16.9674 38.5326 16.8249 38.4851L16.5297 39.3706ZM17.1981 39.4983C18.0135 39.4983 18.8235 38.9628 19.0986 38.1375L18.2131 37.8424C18.0716 38.2671 17.6327 38.5649 17.1981 38.5649V39.4983ZM19.097 38.1421L26.3887 16.9964L25.5063 16.6922L18.2147 37.8378L19.097 38.1421ZM25.869 17.3043C27.9999 17.6681 32.3799 18.3571 35.9379 18.0385L35.8546 17.1089C32.4334 17.4153 28.166 16.7497 26.026 16.3843L25.869 17.3043ZM35.9409 18.0382C38.7071 17.7722 41.5192 16.9749 44.2197 15.7041L43.8223 14.8596C41.2103 16.0887 38.502 16.8543 35.8516 17.1092L35.9409 18.0382ZM43.6911 15.6118L47.1283 19.0491L47.7883 18.3891L44.351 14.9518L43.6911 15.6118ZM47.0448 18.5029C45.8189 20.848 45.0715 23.3574 44.8579 26.0265L45.7883 26.1009C45.9914 23.5616 46.7019 21.1735 47.8719 18.9353L47.0448 18.5029ZM44.8586 26.0185C44.4876 29.8354 45.1746 34.681 45.539 36.9195L46.4602 36.7695C46.0954 34.5289 45.4295 29.7919 45.7876 26.1088L44.8586 26.0185ZM45.8475 36.4033L18.3481 45.8821L18.6523 46.7645L46.1517 37.2857L45.8475 36.4033ZM18.8302 46.6533L33.8825 31.602L33.2225 30.942L18.1702 45.9933L18.8302 46.6533ZM33.8825 31.602C34.6814 30.8031 34.7029 29.5054 33.8678 28.7399L33.2372 29.4279C33.652 29.8082 33.6736 30.4909 33.2225 30.942L33.8825 31.602ZM33.8825 28.7539C33.0836 27.955 31.7859 27.9335 31.0204 28.7686L31.7084 29.3992C32.0887 28.9844 32.7714 28.9628 33.2225 29.4139L33.8825 28.7539ZM31.0344 28.7539L11.2946 48.4937L11.9546 49.1537L31.6944 29.4139L31.0344 28.7539ZM11.3173 48.4725C10.8006 48.9246 10.5333 49.5205 10.5333 50.1777H11.4667C11.4667 49.7931 11.6152 49.452 11.9319 49.1749L11.3173 48.4725ZM10.5333 50.1777C10.5333 51.2726 11.4423 52.3505 12.6204 52.2032L12.5046 51.2771C12.016 51.3382 11.4667 50.8536 11.4667 50.1777H10.5333ZM12.5625 52.2068C12.8537 52.2068 13.0735 52.1316 13.2309 52.0791L12.9358 51.1937C12.7807 51.2454 12.688 51.2735 12.5625 51.2735V52.2068ZM13.2364 52.0772L48.3408 39.8895L48.0346 39.0078L12.9303 51.1955L13.2364 52.0772ZM48.3009 39.9014C48.6306 39.819 48.9116 39.5932 49.0904 39.4145L48.4304 38.7545C48.2967 38.8883 48.1614 38.9742 48.0745 38.996L48.3009 39.9014ZM49.0904 39.4145C49.4438 39.061 49.6297 38.69 49.674 38.2376C49.7143 37.8252 49.6323 37.3666 49.5303 36.8568L48.6151 37.0398C48.7215 37.5716 48.7697 37.8947 48.7451 38.1467C48.7243 38.3589 48.6499 38.5351 48.4304 38.7545L49.0904 39.4145ZM49.533 36.8716C49.2202 34.9947 48.5013 30.1 48.8084 26.4672L47.8783 26.3886C47.5603 30.1515 48.3002 35.1519 48.6124 37.025L49.533 36.8716ZM48.8084 26.4666C48.9602 24.6455 49.4162 22.925 50.1259 21.3028L49.2708 20.9287C48.5222 22.6399 48.039 24.4602 47.8783 26.3891L48.8084 26.4666ZM49.3683 21.4457L52.7009 24.7783L53.3608 24.1183L50.0283 20.7858L49.3683 21.4457ZM52.7907 24.8484C53.0918 25.0291 53.5405 25.2283 54.0725 25.2283V24.2949C53.7711 24.2949 53.4907 24.18 53.2709 24.0481L52.7907 24.8484ZM54.0725 25.2283C54.6209 25.2283 55.1028 25.0168 55.4971 24.6226L54.8371 23.9627C54.6063 24.1935 54.3574 24.2949 54.0725 24.2949V25.2283ZM55.4824 24.6366C56.3092 23.8788 56.3092 22.5713 55.4824 21.8134L54.8517 22.5014C55.275 22.8894 55.275 23.5607 54.8517 23.9486L55.4824 24.6366ZM55.4976 21.828L40.8614 7.13992L40.2003 7.79872L54.8365 22.4868L55.4976 21.828ZM40.8608 7.13934C40.4601 6.73863 39.9379 6.5337 39.418 6.5337V7.46703C39.6923 7.46703 39.9766 7.57501 40.2009 7.7993L40.8608 7.13934ZM35.5936 50.6861C35.3857 50.6759 35.1747 50.6813 34.9622 50.7032L35.0582 51.6316C35.2233 51.6145 35.3869 51.6104 35.5478 51.6183L35.5936 50.6861ZM34.9622 50.7032C33.2715 50.8781 31.8637 51.9906 31.3372 53.6288L32.2257 53.9144C32.6367 52.636 33.7281 51.7692 35.0582 51.6316L34.9622 50.7032ZM31.3361 53.632L30.2426 57.1212L31.1332 57.4003L32.2268 53.9112L31.3361 53.632ZM30.2212 57.2608C30.2212 57.1215 30.2928 57.0165 30.3679 56.9599C30.4409 56.905 30.5075 56.8989 30.5312 56.8989V57.8322C30.7617 57.8322 31.1546 57.6848 31.1546 57.2608H30.2212ZM30.5312 56.8989C30.555 56.8989 30.6216 56.905 30.6946 56.9599C30.7697 57.0165 30.8413 57.1215 30.8413 57.2608H29.9079C29.9079 57.6848 30.3008 57.8322 30.5312 57.8322V56.8989ZM30.7871 57.0427L30.3192 56.1576L29.4941 56.5939L29.962 57.4789L30.7871 57.0427ZM30.32 56.1592C29.6731 54.9242 28.4851 54.1462 27.1142 54.0866L27.0737 55.0191C28.0987 55.0636 28.9943 55.6398 29.4933 56.5923L30.32 56.1592ZM27.1142 54.0866C25.7389 54.0268 24.4416 54.7435 23.6814 55.9129L24.464 56.4216C25.058 55.5077 26.0532 54.9747 27.0737 55.0191L27.1142 54.0866ZM23.7177 55.8644L22.207 57.6354L22.9171 58.2411L24.4278 56.4701L23.7177 55.8644ZM22.2058 57.6368C21.4683 58.5084 21.5927 59.7944 22.42 60.4839L23.0175 59.7669C22.5948 59.4146 22.51 58.7223 22.9183 58.2397L22.2058 57.6368ZM22.42 60.4839C22.8231 60.8198 23.2959 60.9572 23.7085 60.9572V60.0239C23.4962 60.0239 23.2394 59.9518 23.0175 59.7669L22.42 60.4839ZM23.7085 60.9572C24.2664 60.9572 24.8623 60.6857 25.2602 60.2215L24.5515 59.6141C24.3244 59.8791 23.984 60.0239 23.7085 60.0239V60.9572ZM25.2602 60.2215L26.8227 58.3986L26.114 57.7912L24.5515 59.6141L25.2602 60.2215ZM26.7983 58.4249C26.8362 58.3871 26.8656 58.3487 26.8846 58.3225C26.9043 58.2956 26.9227 58.2679 26.9347 58.25C26.9488 58.2288 26.9566 58.2173 26.963 58.2084C26.9701 58.1988 26.9668 58.2046 26.955 58.2164L26.295 57.5564C26.2572 57.5942 26.2278 57.6326 26.2087 57.6588C26.1891 57.6857 26.1707 57.7134 26.1587 57.7313C26.1445 57.7525 26.1368 57.764 26.1303 57.7729C26.1233 57.7825 26.1266 57.7767 26.1384 57.7649L26.7983 58.4249ZM27.0133 58.1453C27.0396 58.1058 27.054 58.0975 27.0463 58.1031C27.0424 58.1058 27.03 58.1142 27.0078 58.1229C26.9884 58.1305 26.9459 58.1445 26.8854 58.1445V57.2112C26.7247 57.2112 26.591 57.2812 26.5032 57.344C26.4043 57.4148 26.3146 57.5107 26.2367 57.6275L27.0133 58.1453ZM26.8854 57.6779C26.8891 58.1445 26.8886 58.1445 26.8882 58.1445C26.888 58.1445 26.8876 58.1445 26.8872 58.1445C26.8866 58.1445 26.886 58.1445 26.8854 58.1445C26.8842 58.1445 26.8829 58.1445 26.8817 58.1445C26.8792 58.1445 26.8767 58.1444 26.8743 58.1444C26.8693 58.1443 26.8643 58.1441 26.8593 58.1438C26.8492 58.1432 26.8391 58.1423 26.829 58.141C26.8086 58.1384 26.7882 58.1343 26.7681 58.1287C26.7272 58.1172 26.6906 58.1 26.6594 58.0793C26.5962 58.0372 26.5732 57.9932 26.5718 57.9903L27.4066 57.5729C27.353 57.4658 27.2782 57.3699 27.1762 57.3021C27.1255 57.2684 27.0728 57.2448 27.0205 57.2301C26.9947 57.2229 26.9699 57.2181 26.9465 57.2151C26.9348 57.2136 26.9236 57.2126 26.9127 57.212C26.9073 57.2117 26.902 57.2115 26.8969 57.2113C26.8943 57.2113 26.8917 57.2112 26.8892 57.2112C26.888 57.2112 26.8867 57.2112 26.8855 57.2112C26.8848 57.2112 26.8842 57.2112 26.8836 57.2112C26.8833 57.2112 26.8828 57.2112 26.8827 57.2112C26.8822 57.2112 26.8817 57.2112 26.8854 57.6779ZM26.5767 57.9999L27.0457 58.8859L27.8706 58.4493L27.4016 57.5633L26.5767 57.9999ZM27.0444 58.8835C27.7519 60.2396 29.175 61.075 30.7237 60.9558L30.6521 60.0253C29.4925 60.1145 28.4144 59.4915 27.8719 58.4518L27.0444 58.8835ZM30.7237 60.9558C32.2601 60.8377 33.5809 59.8279 34.0019 58.3245L33.1031 58.0729C32.7949 59.1737 31.824 59.9351 30.6521 60.0253L30.7237 60.9558ZM33.9978 58.3383L35.0913 54.8491L34.2007 54.5699L33.1072 58.0591L33.9978 58.3383ZM35.0947 54.8377C35.1074 54.7936 35.1203 54.7738 35.1248 54.7678C35.1287 54.7624 35.1296 54.7629 35.1273 54.7642C35.1259 54.7651 35.136 54.7591 35.1669 54.7591V53.8258C35.0415 53.8258 34.8433 53.846 34.6465 53.9643C34.4375 54.0899 34.2786 54.297 34.1973 54.5813L35.0947 54.8377ZM35.1669 54.7591C35.2469 54.7591 35.2774 54.762 35.3044 54.7715C35.3151 54.7753 35.3267 54.7809 35.3403 54.7916C35.3542 54.8024 35.3764 54.8234 35.4032 54.8636L36.1798 54.3459C36.0207 54.1073 35.8227 53.9646 35.6149 53.8913C35.4207 53.8228 35.2431 53.8258 35.1669 53.8258V54.7591ZM35.3785 54.822L36.941 57.7914L37.7669 57.3568L36.2044 54.3874L35.3785 54.822ZM36.9426 57.7945C37.7946 59.3848 39.2762 60.4079 41.0303 60.6909L41.1789 59.7694C39.7037 59.5315 38.4758 58.68 37.7653 57.3537L36.9426 57.7945ZM41.0303 60.6909C42.7933 60.9752 44.5619 60.4051 45.816 59.094L45.1415 58.4488C44.104 59.5335 42.6451 60.0059 41.1789 59.7694L41.0303 60.6909ZM45.8087 59.1014C46.6076 58.3025 46.6292 57.0058 45.7941 56.2403L45.1634 56.9283C45.5783 57.3086 45.5999 57.9903 45.1488 58.4414L45.8087 59.1014ZM45.8521 56.3043C45.1738 55.3999 43.8422 55.4776 43.0654 56.2543L43.7254 56.9143C44.1987 56.441 44.8462 56.5187 45.1054 56.8643L45.8521 56.3043ZM43.0654 56.2543C42.6957 56.624 42.2701 56.7761 41.7482 56.6958L41.6063 57.6183C42.4386 57.7463 43.1576 57.4821 43.7254 56.9143L43.0654 56.2543ZM41.754 56.6967C41.27 56.616 40.8718 56.3384 40.6282 55.8919L39.8089 56.3388C40.1903 57.0381 40.8346 57.4897 41.6006 57.6173L41.754 56.6967ZM40.6315 55.898L39.069 52.9296L38.2431 53.3644L39.8056 56.3327L40.6315 55.898ZM39.0669 52.9258C38.3551 51.6038 37.0555 50.7578 35.5936 50.6861L35.5478 51.6183C36.6679 51.6733 37.681 52.3204 38.2452 53.3683L39.0669 52.9258ZM16.2083 56.9508C15.6702 56.9508 15.154 57.1646 14.7735 57.5451L15.4335 58.2051C15.639 57.9996 15.9177 57.8841 16.2083 57.8841L16.2083 56.9508ZM14.7735 57.5451C14.393 57.9256 14.1792 58.4418 14.1792 58.9799H15.1125C15.1125 58.6893 15.228 58.4106 15.4335 58.2051L14.7735 57.5451ZM14.1792 58.9799C14.1792 59.5181 14.393 60.0342 14.7735 60.4148L15.4335 59.7548C15.228 59.5493 15.1125 59.2706 15.1125 58.9799H14.1792ZM14.7735 60.4148C15.154 60.7953 15.6702 61.0091 16.2083 61.0091V60.0758C15.9177 60.0758 15.639 59.9603 15.4335 59.7548L14.7735 60.4148ZM16.2083 61.0091C16.7465 61.0091 17.2626 60.7953 17.6432 60.4148L16.9832 59.7548C16.7777 59.9603 16.499 60.0758 16.2083 60.0758V61.0091ZM17.6432 60.4148C18.0237 60.0342 18.2375 59.5181 18.2375 58.9799H17.3042C17.3042 59.2706 17.1887 59.5493 16.9832 59.7548L17.6432 60.4148ZM18.2375 58.9799C18.2375 58.4418 18.0237 57.9256 17.6432 57.5451L16.9832 58.2051C17.1887 58.4106 17.3042 58.6893 17.3042 58.9799H18.2375ZM17.6432 57.5451C17.2626 57.1646 16.7465 56.9508 16.2083 56.9508V57.8841C16.499 57.8841 16.7777 57.9996 16.9832 58.2051L17.6432 57.5451Z" fill="#EAEAEA" mask="url(#path-1-inside-1_2049_1517)"/>
</svg>
