<svg width="67" height="67" viewBox="0 0 67 67" fill="none" xmlns="http://www.w3.org/2000/svg">
<g clip-path="url(#clip0_2049_1522)">
<path d="M38.0796 35.491L38.0796 35.4911L38.0828 35.4878C39.532 34.0059 41.5647 33.2042 43.6608 33.2042C45.754 33.2042 47.7294 34.004 49.2415 35.4905C49.2417 35.4907 49.2419 35.4909 49.2421 35.491L66.2971 52.3784L66.297 52.3785L66.3051 52.3859C66.9162 52.9367 66.9271 53.8994 66.2977 54.5183L66.2976 54.5182L66.2906 54.5256C65.7284 55.1287 64.7434 55.1393 64.1119 54.5183L47.0563 37.7477C46.1727 36.8789 44.9159 36.3855 43.6608 36.3855C42.3443 36.3855 41.1479 36.88 40.2654 37.7477L18.7839 58.869C17.9265 59.6547 16.8457 60.1002 15.7128 60.1002C15.6426 60.1002 15.5553 60.0885 15.4459 60.0731L15.4374 60.0719C15.3437 60.0588 15.2319 60.0432 15.1297 60.0417C14.232 59.9281 13.326 59.4834 12.585 58.7547L6.12247 52.399L5.96016 52.5641L6.12246 52.399C5.18906 51.4812 3.99926 50.9234 2.7987 50.8613L2.79871 50.8609H2.78664C1.90181 50.8609 1.23212 50.1487 1.28383 49.2843C1.33644 48.405 2.07158 47.746 2.89272 47.7965L2.89271 47.7966L2.90028 47.7968C4.87097 47.8538 6.79044 48.7097 8.30826 50.2021L8.30904 50.2029L14.8315 56.5566C14.8316 56.5568 14.8318 56.5569 14.8319 56.557C14.9294 56.6528 15.0469 56.7528 15.1694 56.8305C15.2852 56.904 15.4363 56.9776 15.5936 56.9776C15.9215 56.9776 16.2935 56.9131 16.5952 56.6164L38.0796 35.491ZM0.566585 7.4322C0.566585 6.5644 1.23637 5.9002 2.12858 5.9002H4.52236C5.41457 5.9002 6.08436 6.5644 6.08436 7.4322C6.08436 8.3 5.41457 8.9642 4.52236 8.9642H2.12858C1.23637 8.9642 0.566585 8.3 0.566585 7.4322ZM10.1417 7.4322C10.1417 6.5644 10.8115 5.9002 11.7037 5.9002H14.0975C14.9897 5.9002 15.6595 6.5644 15.6595 7.4322C15.6595 8.3 14.9897 8.9642 14.0975 8.9642H11.7037C10.8115 8.9642 10.1417 8.3 10.1417 7.4322ZM7.74791 33.3237C7.74791 29.2195 11.1107 25.9073 15.2944 25.9073C19.478 25.9073 22.8408 29.2195 22.8408 33.3237C22.8408 37.428 19.478 40.7402 15.2944 40.7402C11.1107 40.7402 7.74791 37.428 7.74791 33.3237ZM19.7168 33.3237C19.7168 30.8962 17.7534 28.9713 15.2944 28.9713C12.8353 28.9713 10.8719 30.8962 10.8719 33.3237C10.8719 35.7512 12.8353 37.6762 15.2944 37.6762C17.7534 37.6762 19.7168 35.7512 19.7168 33.3237Z" fill="black" stroke="#EAEAEA" stroke-width="0.466667"/>
</g>
<defs>
<clipPath id="clip0_2049_1522">
<rect width="66.6667" height="66.6667" fill="white" transform="translate(0.333252 0.333496)"/>
</clipPath>
</defs>
</svg>
