<svg width="67" height="67" viewBox="0 0 67 67" fill="none" xmlns="http://www.w3.org/2000/svg">
<path fill-rule="evenodd" clip-rule="evenodd" d="M32.1855 20.3219L29.1795 27.7295L29.1764 27.7365C29.0354 28.0539 29.0658 28.3594 29.2499 28.6538C29.4312 28.944 29.7252 29.1387 30.0818 29.2224L37.995 30.2383L44.3143 41.0182C44.4911 41.3364 44.8542 41.5595 45.2604 41.5595C45.6666 41.5595 46.0298 41.3365 46.2066 41.0183L46.208 41.0158L63.967 9.50786L63.9676 9.50688C64.1491 9.17915 64.149 8.72611 63.967 8.39863C63.7903 8.08049 63.4272 7.85753 63.0211 7.85741L40.5336 7.88977L26.8236 7.9095C26.5813 7.9095 26.3156 8.01736 26.0958 8.21017C26.0118 8.28378 25.9346 8.36978 25.8679 8.46688C25.6954 8.79186 25.6975 9.23356 25.8743 9.55565L32.1855 20.3219ZM25.4687 8.22408C25.2083 8.69283 25.2083 9.31783 25.4687 9.78658L31.6666 20.3595L28.75 27.547C28.5416 28.0157 28.5937 28.4845 28.8541 28.9012C29.1145 29.3178 29.5312 29.5782 30 29.6824L37.7083 30.672L43.9062 41.2449C44.1666 41.7137 44.6875 42.0262 45.2604 42.0262C45.8333 42.0262 46.3541 41.7137 46.6145 41.2449L64.375 9.7345C64.6354 9.26575 64.6354 8.64075 64.375 8.172C64.1145 7.70325 63.5937 7.39075 63.0208 7.39075M61.1644 10.0464L45.268 38.2762L39.6529 28.6744C39.4713 28.3872 39.1788 28.1945 38.8246 28.1112L32.6402 27.3217L50.4418 16.3625C50.895 16.0982 51.0993 15.5857 50.9605 15.1331C50.7718 14.531 50.1902 14.22 49.6183 14.3987L49.6102 14.4012L33.9483 18.9825L28.7701 10.156L61.1644 10.0464ZM51.4062 14.9949C51.6145 15.672 51.302 16.4012 50.677 16.7657L34.0104 27.0262L38.9062 27.6512C39.375 27.7553 39.7916 28.0157 40.052 28.4324L45.2604 37.3387L60.3645 10.5157L29.5833 10.6199L34.1666 18.4324L49.4791 13.9532C50.3125 13.6928 51.1458 14.1616 51.4062 14.9949ZM24.9479 32.9116C25.677 32.4949 25.9375 31.5053 25.5208 30.7762C25.1041 30.047 24.1145 29.7866 23.3854 30.2032L8.07288 39.1095C7.34371 39.5782 7.0833 40.5157 7.49996 41.2449C7.81246 41.7657 8.3333 42.0262 8.85413 42.0262C9.11455 42.0262 9.37496 41.9741 9.63538 41.8178L24.9479 32.9116ZM7.90253 41.0088C8.12793 41.3814 8.49268 41.5595 8.85413 41.5595C9.047 41.5595 9.22073 41.5224 9.39528 41.4177L9.40073 41.4144L24.7163 32.5064C25.2174 32.2201 25.4069 31.5174 25.1156 31.0077C24.8295 30.5071 24.1279 30.3175 23.6183 30.6077L23.6169 30.6084L8.31718 39.5073C7.78689 39.8538 7.62442 40.5163 7.90253 41.0088ZM31.3541 41.0366L33.3333 39.1616C33.9583 38.5887 34.0104 37.5991 33.3854 36.9741C32.8125 36.4012 31.8229 36.4012 31.1979 36.9741L29.2187 38.8491C23.4895 44.3178 18.802 50.6199 15.2604 57.7032C14.8958 58.4845 15.2083 59.422 15.9375 59.7866C16.1458 59.8907 16.4062 59.9428 16.6145 59.9428C17.1875 59.9428 17.7604 59.6303 18.0208 59.0574C21.4062 52.2866 25.8854 46.2449 31.3541 41.0366ZM15.6808 57.9058C15.4201 58.4716 15.659 59.1256 16.1462 59.3692C16.2824 59.4373 16.47 59.4762 16.6145 59.4762C17.0255 59.4762 17.4196 59.2523 17.596 58.8643L17.5995 58.8564L17.6034 58.8487C21.0131 52.0293 25.5247 45.944 31.0323 40.6986L31.0332 40.6978L33.0179 38.8175C33.4544 38.4174 33.4855 37.7342 33.0554 37.3041C32.673 36.9216 31.9707 36.9013 31.5158 37.3157L29.5409 39.1866C23.8518 44.6173 19.1975 50.8743 15.6808 57.9058ZM14.2377 21.6431L14.2277 21.6456C13.6761 21.7835 13.3252 22.3865 13.4706 22.9946C13.6248 23.4776 14.0714 23.7991 14.5312 23.7991C14.6831 23.7991 14.7213 23.7973 14.8003 23.7709L14.8076 23.7685L24.4602 20.8988L24.4701 20.8963C25.0215 20.7585 25.3723 20.1561 25.2275 19.5483C25.0365 18.9593 24.4555 18.6378 23.8723 18.7787L14.2377 21.6431ZM25.677 19.422C25.8854 20.2553 25.4166 21.1407 24.5833 21.3491L14.9479 24.2137C14.7916 24.2657 14.6875 24.2657 14.5312 24.2657C13.8541 24.2657 13.2291 23.797 13.0208 23.1199C12.8125 22.2866 13.2812 21.4012 14.1145 21.1928L23.75 18.3282C24.5833 18.1199 25.4166 18.5887 25.677 19.422ZM8.10885 25.6377L8.11595 25.6359C8.67128 25.4971 9.0232 24.887 8.87015 24.2748C8.73181 23.7214 8.12551 23.37 7.51549 23.519L4.02649 24.5084L4.0194 24.5101C3.46803 24.648 3.11717 25.2504 3.262 25.8582C3.45327 26.4481 4.0358 26.7697 4.61986 26.6271L8.10885 25.6377ZM4.73955 27.0782L8.22913 26.0887C9.06246 25.8803 9.53121 24.9949 9.32288 24.1616C9.11455 23.3282 8.22913 22.8595 7.3958 23.0678L3.90621 24.0574C3.07288 24.2657 2.60413 25.1512 2.81246 25.9845C3.07288 26.8178 3.90621 27.2866 4.73955 27.0782Z" fill="black"/>
<path fill-rule="evenodd" clip-rule="evenodd" d="M29.1795 27.7295L29.1764 27.7365C29.0354 28.0539 29.0658 28.3594 29.2499 28.6538C29.4312 28.944 29.7252 29.1387 30.0818 29.2224L37.995 30.2383L44.3143 41.0182C44.4911 41.3364 44.8542 41.5595 45.2604 41.5595C45.6666 41.5595 46.0298 41.3365 46.2066 41.0183L46.208 41.0158L63.967 9.50786L63.9676 9.50688C64.1491 9.17915 64.149 8.72611 63.967 8.39863C63.7903 8.08049 63.4272 7.85753 63.0211 7.85741L40.5336 7.88977L26.0958 8.21017C26.0118 8.28378 25.9346 8.36978 25.8679 8.46688C25.6954 8.79186 25.6975 9.23356 25.8743 9.55565L32.1855 20.3219L29.1795 27.7295ZM39.6529 28.6744C39.4713 28.3872 39.1788 28.1945 38.8246 28.1112L32.6402 27.3217L50.4418 16.3625C50.895 16.0982 51.0993 15.5857 50.9605 15.1331C50.7718 14.531 50.1902 14.22 49.6183 14.3987L49.6102 14.4012L33.9483 18.9825L28.7701 10.156L61.1644 10.0464L45.268 38.2762L39.6529 28.6744Z" fill="black"/>
<path d="M8.85413 41.5595C8.49268 41.5595 8.12793 41.3814 7.90253 41.0088C7.62442 40.5163 7.78689 39.8538 8.31718 39.5073L23.6169 30.6084L23.6183 30.6077C24.1279 30.3175 24.8295 30.5071 25.1156 31.0077C25.4069 31.5174 25.2174 32.2201 24.7163 32.5064L9.40073 41.4144L9.39528 41.4177C9.22073 41.5224 9.047 41.5595 8.85413 41.5595Z" fill="black"/>
<path d="M14.2277 21.6456L14.2377 21.6431L23.8723 18.7787C24.4555 18.6378 25.0365 18.9593 25.2275 19.5483C25.3723 20.1561 25.0215 20.7585 24.4701 20.8963L24.4602 20.8988L14.8076 23.7685L14.8003 23.7709C14.7213 23.7973 14.6831 23.7991 14.5312 23.7991C14.0714 23.7991 13.6248 23.4776 13.4706 22.9946C13.3252 22.3865 13.6761 21.7835 14.2277 21.6456Z" fill="black"/>
<path d="M8.11595 25.6359L8.10885 25.6377L4.61986 26.6271C4.0358 26.7697 3.45327 26.4481 3.262 25.8582C3.11717 25.2504 3.46803 24.648 4.0194 24.5101L4.02649 24.5084L7.51549 23.519C8.12551 23.37 8.73181 23.7214 8.87015 24.2748C9.0232 24.887 8.67128 25.4971 8.11595 25.6359Z" fill="black"/>
<path d="M16.1462 59.3692C15.659 59.1256 15.4201 58.4716 15.6808 57.9058C19.1975 50.8743 23.8518 44.6173 29.5409 39.1866L31.5158 37.3157C31.9707 36.9013 32.673 36.9216 33.0554 37.3041C33.4855 37.7342 33.4544 38.4174 33.0179 38.8175L31.0332 40.6978L31.0323 40.6986C25.5247 45.944 21.0131 52.0293 17.6034 58.8487L17.5995 58.8564L17.596 58.8643C17.4196 59.2523 17.0255 59.4762 16.6145 59.4762C16.47 59.4762 16.2824 59.4373 16.1462 59.3692Z" fill="black"/>
</svg>
