<svg width="67" height="67" viewBox="0 0 67 67" fill="none" xmlns="http://www.w3.org/2000/svg">
<g clip-path="url(#clip0_2049_1527)">
<path d="M8.954 11.844V12.4547L9.36123 11.9995C15.5155 5.12128 24.4108 1.0877 33.6665 1.0877C51.6105 1.0877 66.2457 15.7228 66.2457 33.6669C66.2457 34.4234 65.673 34.996 64.9165 34.996C64.16 34.996 63.5873 34.4234 63.5873 33.6669C63.5873 17.1838 50.1495 3.74604 33.6665 3.74604C24.7963 3.74604 16.6063 7.52584 10.8847 14.2448L10.5572 14.6294H11.0623H20.6457C21.4022 14.6294 21.9748 15.202 21.9748 15.9585C21.9748 16.7151 21.4022 17.2877 20.6457 17.2877H7.62484C6.86829 17.2877 6.29567 16.7151 6.29567 15.9585V2.9377C6.29567 2.18115 6.86829 1.60854 7.62484 1.60854C8.38139 1.60854 8.954 2.18115 8.954 2.9377V11.844ZM56.3962 53.089L56.7238 52.7044H56.2186H46.6873C45.9308 52.7044 45.3582 52.1318 45.3582 51.3752C45.3582 50.6187 45.9308 50.046 46.6873 50.046H59.7082C60.4647 50.046 61.0373 50.6187 61.0373 51.3752V64.396C61.0373 65.1526 60.4647 65.7252 59.7082 65.7252C58.9516 65.7252 58.379 65.1526 58.379 64.396V55.4898V54.8791L57.9718 55.3342C51.8176 62.2125 42.9222 66.246 33.6665 66.246C15.7225 66.246 1.08734 51.6109 1.08734 33.6669C1.08734 32.9103 1.65995 32.3377 2.4165 32.3377C3.17305 32.3377 3.74567 32.9103 3.74567 33.6669C3.74567 50.1499 17.1835 63.5877 33.6665 63.5877C42.5372 63.5877 50.6749 59.8076 56.3962 53.089Z" fill="black" stroke="#EAEAEA" stroke-width="0.466667"/>
</g>
<defs>
<clipPath id="clip0_2049_1527">
<rect width="66.6667" height="66.6667" fill="white" transform="translate(0.333252 0.333496)"/>
</clipPath>
</defs>
</svg>
