<svg width="108" height="108" viewBox="0 0 108 108" fill="none" xmlns="http://www.w3.org/2000/svg">
<path d="M54.0748 76.8575C66.6593 76.8575 76.861 66.6558 76.861 54.0713C76.861 41.4868 66.6593 31.2851 54.0748 31.2851C41.4903 31.2851 31.2886 41.4868 31.2886 54.0713C31.2886 66.6558 41.4903 76.8575 54.0748 76.8575Z" stroke="black" stroke-width="1.42476"/>
<path d="M53.9318 65.9713C60.583 65.9713 65.9749 60.5794 65.9749 53.9282C65.9749 47.277 60.583 41.8851 53.9318 41.8851C47.2806 41.8851 41.8887 47.277 41.8887 53.9282C41.8887 60.5794 47.2806 65.9713 53.9318 65.9713Z" fill="black"/>
<path d="M89.9658 72.4067L73.9994 79.3287L64.1076 93.0133L54 54L89.9658 72.4067Z" fill="#FF2626"/>
<rect x="1" y="1" width="106" height="106" stroke="black" stroke-width="1.14"/>
</svg>
