<svg width="253" height="243" viewBox="0 0 253 243" fill="none" xmlns="http://www.w3.org/2000/svg">
<path d="M46.0644 121.144L0 104.754L14.1737 67.698L58.112 82.6628C83.6247 91.2141 97.7983 99.0528 112.681 109.029C108.429 91.2141 106.303 74.1115 106.303 49.1701V0H145.989V49.1701C145.989 74.1115 143.154 92.6393 139.611 109.029C154.493 99.7654 168.667 91.2141 193.471 82.6628L238.118 66.9854L253 104.754L206.227 121.144C182.84 129.695 164.415 132.545 148.115 134.683C162.997 147.51 173.627 158.912 187.092 180.29L214.731 220.196L182.132 243L154.493 203.806C139.611 182.428 131.815 166.038 125.437 151.073C119.768 168.176 111.972 184.566 97.7983 203.806L69.451 243L36.1429 220.196L63.7815 180.29C78.6639 158.912 90.7115 146.798 104.176 134.683C82.916 131.833 66.6162 128.982 46.0644 121.144Z" fill="#0090FF"/>
</svg>
